REM GENRE "Rock / Art Rock / Art Rock / Pop Rock"
REM DATE 1979
REM DISCID -23475472898ADA0A
REM COMMENT "ExactAudioCopy v1.0b4"
PERFORMER "Supertramp"
TITLE "Breakfast In America"
    PERFORMER "Supertramp"
    INDEX 00 15:18:25
    INDEX 01 15:20:17
  TRACK 05 AUDIO
    TITLE "Lord Is It Mine"
    PERFORMER "Supertramp"
    INDEX 01 27:16:00
  TRACK 08 AUDIO
    TITLE "Just Another Nervous Wreck"
    PERFORMER "Supertramp"
    INDEX 01 31:25:72
  TRACK 09 AUDIO
    TITLE "Casual Conversations"
    PERFORMER "Supertramp"
    INDEX 00 35:49:41
    INDEX 01 35:51:45
  TRACK 10 AUDIO
    TITLE "Child Of Vision"
    PERFORMER "Supertramp"
    INDEX 01 27:16:00
  TRACK 08 AUDIO
    TITLE "Just Another Nervous Wreck"
    PERFORMER "Supertramp"
    INDEX 01 31:25:72
  TRACK 09 AUDIO
    TITLE "Casual Conversations"
    PERFORMER "Supertramp"
    TITLE "Lord Is It Mine"
    INDEX 00 35:49:41
    INDEX 01 35:51:45
  TRACK 10 AUDIO
    TITLE "Child Of Vision"
    PERFORMER "Supertramp"
    INDEX 01 38:50:30
